<?xml version="1.0" standalone="no"?>
<!DOCTYPE svg PUBLIC "-//W3C//DTD SVG 20010904//EN"
 "http://www.w3.org/TR/2001/REC-SVG-20010904/DTD/svg10.dtd">
<svg version="1.0" xmlns="http://www.w3.org/2000/svg"
 width="698.000000pt" height="1280.000000pt" viewBox="0 0 698.000000 1280.000000"
 preserveAspectRatio="xMidYMid meet">
<metadata>
Created by potrace 1.15, written by Peter Selinger 2001-2017
</metadata>
<g transform="translate(0.000000,1280.000000) scale(0.100000,-0.100000)"
fill="#000000" stroke="none">
<path d="M3105 12793 c-71 -6 -249 -42 -330 -67 -185 -55 -344 -127 -545 -247
-217 -129 -342 -155 -805 -169 -380 -11 -480 -25 -627 -84 -95 -39 -166 -86
-258 -173 -90 -85 -128 -139 -117 -167 9 -22 31 -21 217 15 l163 31 226 -11
c249 -12 375 -28 526 -67 428 -110 804 -402 946 -734 56 -133 72 -211 73 -365
1 -167 -17 -243 -93 -400 -85 -175 -195 -315 -503 -647 -374 -401 -487 -573
-563 -861 -14 -52 -43 -199 -64 -328 -71 -423 -92 -482 -301 -844 -381 -661
-437 -763 -524 -935 -331 -655 -449 -1172 -516 -2255 -46 -749 72 -1232 327
-1341 174 -74 289 -7 338 198 9 36 20 155 25 276 14 293 43 470 113 692 33
105 109 282 118 273 10 -12 39 -244 49 -408 14 -212 12 -409 -6 -852 -19 -463
-14 -960 11 -1153 48 -371 119 -600 297 -953 97 -194 153 -271 287 -401 45
-44 84 -89 87 -102 8 -31 -9 -58 -91 -144 -77 -81 -110 -132 -101 -157 12 -30
126 -10 324 55 100 33 182 59 182 57 0 -1 -19 -42 -41 -90 -30 -64 -42 -102
-43 -139 -1 -46 1 -51 20 -50 11 0 90 50 175 111 145 104 189 131 189 116 0
-3 -9 -55 -21 -114 -11 -60 -19 -120 -17 -134 l3 -25 120 58 c175 85 275 146
346 209 113 100 153 104 361 36 117 -37 157 -46 220 -47 l77 -1 -30 -50 c-66
-110 -94 -201 -80 -265 l6 -29 70 45 c80 51 107 61 144 48 24 -9 26 -15 31
-83 3 -42 10 -76 16 -78 6 -2 48 28 93 67 46 39 88 69 94 67 16 -5 24 -25 37
-88 21 -105 19 -105 166 -2 71 50 143 98 161 107 35 17 88 21 97 7 3 -5 38
-17 78 -27 88 -23 306 -27 330 -6 10 8 30 10 60 6 36 -5 54 -1 94 19 69 35
134 85 134 102 0 31 79 47 121 25 10 -6 25 -25 33 -43 7 -18 46 -67 86 -109
77 -84 106 -96 149 -60 24 19 50 136 51 230 0 62 9 65 68 23 45 -33 93 -98
124 -167 19 -45 20 -45 40 -27 31 28 48 68 64 151 8 41 16 77 18 79 2 3 36
-34 76 -81 40 -47 76 -86 80 -86 16 0 32 73 26 116 -3 24 -24 87 -46 139 -22
51 -40 109 -40 128 0 32 5 37 79 80 92 54 117 85 181 227 126 281 179 496 255
1037 51 363 85 575 94 585 4 4 49 -14 102 -40 284 -143 493 -94 543 127 40
174 -2 364 -150 684 -171 369 -230 530 -274 745 -56 277 -70 487 -70 1092 0
1050 -96 1818 -293 2360 -74 204 -149 359 -329 680 -243 435 -274 502 -404
887 -170 505 -222 597 -560 1000 -234 278 -297 368 -388 550 -121 241 -156
402 -211 948 -45 454 -82 610 -189 792 -46 79 -141 190 -201 235 -191 145
-491 218 -790 191z"/>
</g>
</svg>
